# xmcd
#
# Track frame offsets: 
#        150
#        18515
#        32089
#        57469
#        77584
#        93383
#        111064
#        137204
#
# Disc length: 2126 seconds
#
# Revision: 0
# Processed by: cddbd v1.5.2PL0 Copyright (c) Steve Scherf et al.
# Submitted via: ExactAudioCopy v1.0b4
#
DISCID=63084c08
DTITLE=Reddog - Reincarnation (LP)
DYEAR=1988
DGENRE=Blues
TTITLE0=Theme From Texas
TTITLE1=44 Magnum Man
TTITLE2=Keep Me Free
TTITLE3=Nobody Knows Your Name
TTITLE4=Bad Boy
TTITLE5=Just A Memory
TTITLE6=I'm A Man
TTITLE7=The Twilight
EXTD=
EXTT0=
EXTT1=
EXTT2=
EXTT3=
EXTT4=
EXTT5=
EXTT6=
EXTT7=
PLAYORDER=
